<svg xmlns="http://www.w3.org/2000/svg" width="103" height="24" viewBox="0 0 103 24" fill="none">
    <path d="M9.06187 12.6957L0 17.5061V23.5664H5.80536L10.0139 14.4424H11.3257L15.5407 23.5664H21.3472V17.5061L12.2853 12.6957H9.06187ZM15.5407 0.566406L11.3257 9.69046H10.0139L5.80536 0.566406H0V6.62669L9.06187 11.4372H12.2842L21.3461 6.62669V0.566406H15.5397H15.5407Z" fill="#FCFDF7"/>
    <path d="M40.4753 10.0807H28.5864V0.896962H25.6166V23.5616H28.5864V12.7251H40.4753V23.5616H43.4452V0.896962H40.4753V10.0807ZM53.4181 6.38228C48.4316 6.38228 45.1313 9.81719 45.1313 14.9719C45.1313 20.1267 48.4316 23.5616 53.4181 23.5616C58.4045 23.5616 61.7049 20.1267 61.7049 14.9719C61.7049 9.81719 58.4045 6.38228 53.4181 6.38228ZM53.4181 21.2525C50.0172 21.2525 47.7706 18.7422 47.7706 14.9767C47.7706 11.2113 50.0172 8.70096 53.4181 8.70096C56.819 8.70096 59.0656 11.2113 59.0656 14.9767C59.0656 18.7422 56.819 21.2525 53.4181 21.2525ZM103 13.6354C102.957 9.27584 100.006 6.38707 95.5946 6.38707C93.6402 6.38707 91.523 7.43143 90.2728 8.97882V6.72242H87.5808V23.5664H90.2728V13.7312C90.2728 10.7322 92.2942 8.74408 95.3215 8.74408C98.3489 8.74408 100.423 10.6843 100.471 13.621C100.471 13.6545 100.471 13.6928 100.471 13.7312H102.995C102.995 13.6976 102.995 13.6689 102.995 13.6401L103 13.6354ZM82.4075 9.52496C81.119 7.64222 78.7096 6.38707 76.396 6.38707C71.4766 6.38707 68.205 9.82198 68.205 14.9767C68.205 20.1315 71.4718 23.5664 76.396 23.5664C78.7096 23.5664 81.119 22.3113 82.4075 20.4285V23.2359H85.0469V0.566406H82.4075V9.52496ZM76.6595 21.2525C73.1579 21.2525 70.8491 18.7422 70.8491 14.9767C70.8491 11.2113 73.1627 8.70096 76.6595 8.70096C80.1562 8.70096 82.4075 11.2113 82.4075 14.9767C82.4075 18.7422 80.0939 21.2525 76.6595 21.2525ZM63.7167 23.5664H66.356V0.896962H63.7167V23.5664Z" fill="#FCFDF7"/>
</svg>