<?xml version="1.0" encoding="UTF-8"?><svg id="Layer_2" xmlns="http://www.w3.org/2000/svg" viewBox="0 0 46 48"><defs><style>.cls-1{fill:#fabb05;}.cls-2{fill:#e94335;}.cls-3{fill:#4285f3;}.cls-4{fill:#34a753;}</style></defs><g id="Layer_1-2"><g id="Google"><path class="cls-2" d="m2.57,13.24c.68-1.64,1.76-3.14,2.84-4.51C9.07,4.37,13.53,1.64,19.08.41c1.62-.27,3.25-.41,4.87-.41,3.92.14,7.71,1.09,11.09,3,1.49.82,2.84,1.91,4.06,3l.14.14c-2.16,2.32-4.33,4.51-6.63,6.69-.27-.27-.54-.55-.95-.82-2.03-1.64-4.46-2.59-7.17-2.73-6.49-.55-12.18,3.82-14.21,9.69q0,.14-.13.27c-.14,0-.14-.14-.27-.14-2.44-1.91-4.87-3.96-7.31-5.87Z"/><path class="cls-4" d="m10.15,28.67c.41.96.81,1.91,1.35,2.73,2.17,3.82,5.41,6.14,9.74,6.96,3.65.68,7.17,0,10.28-2.05h.13c2.43,1.91,5.01,3.96,7.44,5.87-1.08,1.09-2.3,1.91-3.65,2.73-2.98,1.77-6.22,2.73-9.74,3-3.65.27-7.17-.14-10.55-1.5-5.68-2.32-9.74-6.14-12.58-11.47v-.14q.14-.14.27-.27c2.44-2.05,4.87-3.96,7.31-5.87Z"/><path class="cls-3" d="m38.96,42.19c-2.44-1.91-5.01-3.96-7.44-5.87,1.62-1.23,2.98-2.59,3.79-4.51.41-.96.68-1.91.95-2.87h-12.72v-9.28h22.05c0,.41.14.82.14,1.37.14,1.64.27,3.14.27,4.78-.13,3.82-.95,7.37-2.71,10.79-1.08,1.91-2.44,3.82-4.33,5.6.14,0,.14-.14,0,0Z"/><path class="cls-1" d="m10.15,28.67c-2.44,1.91-4.87,3.82-7.31,5.87q-.14.14-.27.27c-.41-1.09-.95-2.18-1.35-3.28-.81-2.46-1.22-4.78-1.22-7.24,0-3.82.81-7.37,2.44-10.79,0-.14.14-.14.14-.14,2.44,1.91,4.87,3.96,7.44,5.87.14,0,.14.14.27.14-.27.96-.54,2.05-.68,3-.27,2.05,0,4.1.54,6.14v.14Z"/></g></g></svg>